<svg xmlns="http://www.w3.org/2000/svg" width="168" height="168" viewBox="0 0 168 168" fill="none">
  <rect width="168" height="168" fill="none"/>
  <g stroke="#c79a43" stroke-width="1" opacity=".24">
    <path d="M84 0v168M0 84h168"/>
    <path d="M0 0l168 168M168 0L0 168"/>
    <path d="M42 0l84 84-84 84M126 0L42 84l84 84"/>
    <path d="M0 42l84 84 84-84M0 126l84-84 84 84"/>
    <path d="M84 0 42 42 84 84 126 42 84 0ZM84 84 42 126 84 168 126 126 84 84ZM0 84 42 42 84 84 42 126 0 84ZM84 84 126 42 168 84 126 126 84 84Z"/>
  </g>
</svg>